<?xml version="1.0" encoding="utf-8" ?>
<svg xmlns="http://www.w3.org/2000/svg" xmlns:xlink="http://www.w3.org/1999/xlink" width="731" height="1024">
	<path fill="#67A6D3" transform="matrix(1.6 0 0 1.6 -146.286 0)" d="M331.582 349.669L473.511 350.106C476.754 350.216 476.484 350.737 478.297 353.243L492.476 373.832C494.968 377.522 497.565 381.232 499.625 385.186C485.63 385.559 471.686 387.166 457.746 388.298L251.241 402.951C225.967 404.769 221.631 406.167 197.387 398.945L162.8 388.809C155.962 386.943 149.148 384.88 142.091 384.056C143.58 380.499 145.951 377.204 148.04 373.978L158.42 358.542C163.649 351.086 163.367 350.38 172.642 350.112L298.928 350.01C302.064 350.016 305.605 349.688 308.619 350.655L319.6 363.962C323.98 359.751 327.622 354.316 331.582 349.669Z"/>
	<path fill="#E7192F" transform="matrix(1.6 0 0 1.6 -146.286 0)" d="M308.619 350.655L286.94 314.215C264.953 274.268 229.443 185.634 239.602 138.097C248.868 94.7373 294.263 66.4411 337.31 75.8417C370.384 83.0647 399.119 112.08 402.325 146.5C403.55 159.653 401.76 173.385 399.546 186.309L393.641 214.329C381.936 262.411 359.47 309.066 331.582 349.669C327.622 354.316 323.98 359.751 319.6 363.962L308.619 350.655ZM316.451 114.498C260.581 120.889 269.24 202.615 324.135 198.395C348.716 195.551 364.927 174.879 361.955 150.326C359.428 129.451 337.915 111.76 316.844 114.444L316.451 114.498Z"/>
	<path fill="#67A6D3" transform="matrix(1.6 0 0 1.6 -146.286 0)" d="M142.091 384.056C149.148 384.88 155.962 386.943 162.8 388.809L197.387 398.945C221.631 406.167 225.967 404.769 251.241 402.951L457.746 388.298C471.686 387.166 485.63 385.559 499.625 385.339C503.87 390.736 508.336 396.803 511.642 402.964L571.779 485.156C576.952 492.441 570.301 492.303 565.211 492.302L76.5194 492.36C71.8959 492.368 63.5423 492.886 68.1746 485.719C71.1694 481.085 74.8471 476.611 78.1198 472.149L131.086 399.845L142.091 384.056Z"/>
	<path fill="#FDCE21" transform="matrix(1.6 0 0 1.6 -146.286 0)" d="M142.091 384.056C149.148 384.88 155.962 386.943 162.8 388.809L197.387 398.945C221.631 406.167 225.967 404.769 251.241 402.951L457.746 388.298C471.686 387.166 485.63 385.559 499.625 385.339C503.87 390.736 508.336 396.803 511.642 402.964C509.236 403.727 506.489 403.93 503.978 404.167L393.732 412.862L289.914 420.778L226.435 425.1C215.531 425.364 215.668 425.128 205.062 421.891L142.332 403.155C138.512 402.201 134.666 401.538 131.086 399.845L142.091 384.056Z"/>
</svg>
